<svg id="noun_cellular_credit_3187862" data-name="noun_cellular credit_3187862" xmlns="http://www.w3.org/2000/svg" width="52" height="52" viewBox="0 0 52 52">
  <g id="Grupo_25" data-name="Grupo 25" transform="translate(0 0)">
    <path id="Caminho_325" data-name="Caminho 325" d="M55.071,4H10.5a.929.929,0,0,0-.929.929V20.714A5.571,5.571,0,0,0,4,26.286V55.071A.929.929,0,0,0,4.929,56H40.214a.929.929,0,0,0,.929-.929v-19.5H55.071A.929.929,0,0,0,56,34.643V4.929A.929.929,0,0,0,55.071,4Zm-.929,1.857V10.5H11.429V5.857Zm0,10.214H11.429V12.357H54.143ZM39.286,54.143H5.857V30H39.286Zm0-26H5.857V26.286a3.714,3.714,0,0,1,3.714-3.714h26a3.714,3.714,0,0,1,3.714,3.714Zm1.857,5.571V26.286a5.571,5.571,0,0,0-5.571-5.571H11.429V17.929H54.143V33.714Z" transform="translate(-4 -4)" fill="#641eb4"/>
    <path id="Caminho_326" data-name="Caminho 326" d="M25.571,27.857H20.929a.929.929,0,0,1,0-1.857h4.643a.929.929,0,0,1,0,1.857Z" transform="translate(-5.143 -5.571)" fill="#641eb4"/>
    <circle id="Elipse_8" data-name="Elipse 8" cx="0.861" cy="0.861" r="0.861" transform="translate(12.049 20.444)" fill="#641eb4"/>
    <path id="Caminho_327" data-name="Caminho 327" d="M13.643,52.429H9.929A.929.929,0,0,1,9,51.5V45.929A.929.929,0,0,1,9.929,45h3.714a.929.929,0,0,1,.929.929V51.5A.929.929,0,0,1,13.643,52.429Zm-2.786-1.857h1.857V46.857H10.857Z" transform="translate(-4.357 -6.929)" fill="#641eb4"/>
    <path id="Caminho_328" data-name="Caminho 328" d="M21.643,52.214H17.929A.929.929,0,0,1,17,51.286V42.929A.929.929,0,0,1,17.929,42h3.714a.929.929,0,0,1,.929.929v8.357A.929.929,0,0,1,21.643,52.214Zm-2.786-1.857h1.857v-6.5H18.857Z" transform="translate(-4.929 -6.714)" fill="#641eb4"/>
    <path id="Caminho_329" data-name="Caminho 329" d="M29.643,52H25.929A.929.929,0,0,1,25,51.071V39.929A.929.929,0,0,1,25.929,39h3.714a.929.929,0,0,1,.929.929V51.071A.929.929,0,0,1,29.643,52Zm-2.786-1.857h1.857V40.857H26.857Z" transform="translate(-5.5 -6.5)" fill="#641eb4"/>
    <path id="Caminho_330" data-name="Caminho 330" d="M37.643,51.786H33.929A.929.929,0,0,1,33,50.857V36.929A.929.929,0,0,1,33.929,36h3.714a.929.929,0,0,1,.929.929V50.857A.929.929,0,0,1,37.643,51.786Zm-2.786-1.857h1.857V37.857H34.857Z" transform="translate(-6.071 -6.286)" fill="#641eb4"/>
  </g>
</svg>
