<svg xmlns="http://www.w3.org/2000/svg" width="52" height="52" viewBox="0 0 52 52">
  <g id="Grupo_72" data-name="Grupo 72" transform="translate(-133 -1010.235)">
    <g id="product" transform="translate(133 1010.235)">
      <path id="Caminho_17" data-name="Caminho 17" d="M18.2,102.942a6.907,6.907,0,0,0-1.956-4.815,5.188,5.188,0,0,1,5.594,1.1l1.213-1.237a6.908,6.908,0,0,0-8.32-1.04,6.92,6.92,0,0,0-10.4,5.992v3.467H.867a.867.867,0,0,0-.867.867v29.467a.867.867,0,0,0,.867.867h18.2v-1.733H8.667V108.142h2.6v3.467H13v-3.467h6.067v-1.733H18.2ZM5.054,131.061a.9.9,0,0,0-1.442,0l-1.879,2.821V110.136l1.879,2.818a.867.867,0,0,0,1.442,0l1.879-2.818v23.747Zm1.126,4.814h-3.7L4.333,133.1Zm-1.848-24.96-1.848-2.774h3.7Zm1.733-4.507v-3.467a5.194,5.194,0,0,1,7.156-4.815,6.907,6.907,0,0,0-1.956,4.815v3.467ZM13,102.942a5.182,5.182,0,0,1,1.733-3.864,5.182,5.182,0,0,1,1.733,3.864v3.467H13Zm0,0" transform="translate(0 -85.609)" fill="#641eb4"/>
      <path id="Caminho_18" data-name="Caminho 18" d="M198.847,11.654a.868.868,0,0,0,.087-.387V5.2H202.4v6.067a.87.87,0,0,0,.087.387l5.2,10.4,1.551-.774-5.1-10.217V.867A.867.867,0,0,0,203.267,0h-5.2a.867.867,0,0,0-.867.867v10.2l-5.109,10.217a.865.865,0,0,0-.091.387V51.133a.867.867,0,0,0,.867.867h6.067V50.267h-5.2v-28.4ZM202.4,1.733V3.467h-3.467V1.733Zm0,0" transform="translate(-171.2)" fill="#641eb4"/>
      <path id="Caminho_19" data-name="Caminho 19" d="M294.411,225.956l-3.344-5.853v-3.237A.867.867,0,0,0,290.2,216H276.333a.867.867,0,0,0-.867.867V220.1l-3.352,5.863a.858.858,0,0,0-.114.433v17.333a.867.867,0,0,0,.867.867h20.8a.867.867,0,0,0,.867-.867V226.4A.86.86,0,0,0,294.411,225.956Zm-2.238-.423h-3.947l1.973-3.453Zm-14.973-7.8h12.133v1.733H277.2Zm-.364,3.467h11.873l-2.479,4.333H274.357Zm9.031,21.667H273.733v-15.6h12.133Zm6.933,0h-5.2v-15.6h5.2Zm0,0" transform="translate(-242.533 -192.6)" fill="#641eb4"/>
    </g>
  </g>
</svg>
