<svg xmlns="http://www.w3.org/2000/svg" width="48.677" height="55.69" viewBox="0 0 48.677 55.69">
  <g id="Grupo_39" data-name="Grupo 39" transform="translate(-133 -468)">
    <g id="noun-usability-1295263" transform="translate(133 468)">
      <path id="Caminho_358" data-name="Caminho 358" d="M228.178,127.161h-27.39a.749.749,0,0,1-.749-.749V80.646a.749.749,0,0,1,.749-.749h34.938a.749.749,0,0,1,.749.749V103.2a.749.749,0,1,1-1.5,0V81.394h-33.44v44.27H228.18a.748.748,0,1,1,0,1.5Z" transform="translate(-200.038 -79.897)" fill="#641eb4"/>
      <path id="Caminho_359" data-name="Caminho 359" d="M302.775,108.774H292.3a.749.749,0,0,1,0-1.5h10.473a.749.749,0,1,1,0,1.5Z" transform="translate(-279.321 -103.617)" fill="#641eb4"/>
      <path id="Caminho_360" data-name="Caminho 360" d="M247.481,163.264H233.107a.749.749,0,0,1-.749-.749v-27.86a.749.749,0,0,1,.749-.749H259.3a.749.749,0,0,1,.749.749v5.422a.749.749,0,1,1-1.5,0V135.4h-24.7v26.363H247.48a.749.749,0,1,1,0,1.5Z" transform="translate(-228.038 -126.688)" fill="#641eb4"/>
      <path id="Caminho_361" data-name="Caminho 361" d="M314.807,370.811a3.319,3.319,0,1,1,3.32-3.319A3.323,3.323,0,0,1,314.807,370.811Zm0-5.141a1.822,1.822,0,1,0,1.823,1.823A1.824,1.824,0,0,0,314.807,365.67Z" transform="translate(-296.591 -326.175)" fill="#641eb4"/>
      <path id="Caminho_362" data-name="Caminho 362" d="M398.577,199.091a.749.749,0,0,1-.749-.749V178.888a3.634,3.634,0,1,1,7.267,0v12.4a.749.749,0,1,1-1.5,0v-12.4a2.136,2.136,0,0,0-4.272,0v19.455a.749.749,0,0,1-.749.749Z" transform="translate(-371.391 -162.508)" fill="#641eb4"/>
      <path id="Caminho_363" data-name="Caminho 363" d="M447.053,257.732a.749.749,0,0,1-.749-.749v-2.028a1.91,1.91,0,0,0-3.82,0,.749.749,0,1,1-1.5,0,3.407,3.407,0,0,1,6.814,0v2.028a.748.748,0,0,1-.748.749Z" transform="translate(-408.781 -228.605)" fill="#641eb4"/>
      <path id="Caminho_364" data-name="Caminho 364" d="M486.5,266.255a.749.749,0,0,1-.749-.749v-1.333a1.748,1.748,0,0,0-3.5,0,.749.749,0,1,1-1.5,0,3.245,3.245,0,0,1,6.49,0v1.333a.748.748,0,0,1-.749.749Z" transform="translate(-443.24 -236.731)" fill="#641eb4"/>
      <path id="Caminho_365" data-name="Caminho 365" d="M361.677,294.51H344.758a.748.748,0,0,1-.6-.3l-8.825-11.718a3.634,3.634,0,0,1,5.8-4.372L344.4,282.5a.748.748,0,0,1-1.2.895l-3.262-4.375a2.137,2.137,0,0,0-3.412,2.574l8.6,11.42h15.98c.538-1.91,2.319-8.338,2.608-10.738.183-1.514,0-6.248,0-6.3a1.541,1.541,0,1,0-3.082-.03.749.749,0,1,1-1.5,0,3.038,3.038,0,1,1,6.076,0c.007.17.192,4.871-.005,6.5-.353,2.938-2.709,11.166-2.809,11.514a.75.75,0,0,1-.719.54Z" transform="translate(-316.619 -247.114)" fill="#641eb4"/>
      <path id="Caminho_366" data-name="Caminho 366" d="M422.63,427.842H405.707a.749.749,0,0,1-.749-.749v-4.2a.749.749,0,0,1,1.5,0v3.456h15.426v-3.456a.749.749,0,1,1,1.5,0v4.2a.747.747,0,0,1-.748.749Z" transform="translate(-377.568 -376.394)" fill="#641eb4"/>
      <path id="Caminho_367" data-name="Caminho 367" d="M422.63,455.483H405.707a.749.749,0,0,1-.749-.749V449.9a.749.749,0,0,1,1.5,0v4.088h15.426V449.9a.749.749,0,0,1,1.5,0v4.837a.749.749,0,0,1-.749.749Z" transform="translate(-377.568 -399.793)" fill="#641eb4"/>
      <path id="Caminho_368" data-name="Caminho 368" d="M511.569,438.57a.758.758,0,1,1-.758-.758.757.757,0,0,1,.758.758" transform="translate(-468.616 -389.972)" fill="#641eb4"/>
      <path id="Caminho_369" data-name="Caminho 369" d="M285.327,186.653a.749.749,0,0,1-.749-.749,10.679,10.679,0,0,1,10.667-10.667.749.749,0,1,1,0,1.5,9.18,9.18,0,0,0-9.17,9.17.747.747,0,0,1-.748.748Z" transform="translate(-273.278 -162.494)" fill="#641eb4"/>
      <path id="Caminho_370" data-name="Caminho 370" d="M325.347,216.514a.749.749,0,0,1-.749-.749,6.246,6.246,0,0,1,6.238-6.238.749.749,0,1,1,0,1.5,4.746,4.746,0,0,0-4.741,4.741.749.749,0,0,1-.749.749Z" transform="translate(-307.949 -192.2)" fill="#641eb4"/>
    </g>
  </g>
</svg>
