<svg xmlns="http://www.w3.org/2000/svg" width="45.922" height="55.25" viewBox="0 0 45.922 55.25">
  <g id="noun-start-up-2230376" transform="translate(450.829 -63.458)">
    <path id="Caminho_378" data-name="Caminho 378" d="M182.356,21.462a20.9,20.9,0,0,0-3.463-8.046,23.257,23.257,0,0,0-6.61-6.231l-.579-.361-.579.361a23.268,23.268,0,0,0-6.609,6.232,20.9,20.9,0,0,0-3.464,8.045l-12.309,8.582V35.9h15.363a23.688,23.688,0,0,0,6.988,6.822l.609.4.579-.361a23.577,23.577,0,0,0,6.988-6.822h15.394V30.044ZM150.741,34.1V30.929l9.983-6.994v1.02a11.721,11.721,0,0,0,.05,1.282v.415a4.78,4.78,0,0,0,.09.9,2.772,2.772,0,0,0,.08.487c.03.162.09.523.14.785s.07.343.11.505.13.514.2.767.09.334.14.5.17.523.259.785l.15.442c.12.316.259.632.39.9l.11.262c.17.37.349.74.539,1.1ZM171.7,40.865a21.367,21.367,0,0,1-6.169-6.317,18.024,18.024,0,0,1-2.815-9.593,16.775,16.775,0,0,1,.24-2.879A19.972,19.972,0,0,1,171.7,9.044a19.97,19.97,0,0,1,8.745,13.032,16.775,16.775,0,0,1,.24,2.879v1.255h0a18.238,18.238,0,0,1-2.765,8.348,21.393,21.393,0,0,1-6.219,6.308ZM192.669,34.1H180.391q.279-.541.539-1.11l.09-.207c.14-.334.279-.659.409-.993l.15-.433c.09-.262.18-.533.259-.8s.1-.316.14-.478.14-.514.2-.776.08-.334.11-.5.1-.533.14-.794.06-.325.08-.487.07-.578.09-.9V23.9l9.983,6.994ZM171.7,25.975a5.275,5.275,0,0,0-3.53,1.321,4.214,4.214,0,0,0,0,6.382,5.375,5.375,0,0,0,7.059,0,4.214,4.214,0,0,0,0-6.382,5.275,5.275,0,0,0-3.53-1.321Zm0,7.22a3.164,3.164,0,0,1-2.118-.793,2.528,2.528,0,0,1,0-3.829,3.225,3.225,0,0,1,4.235,0,2.528,2.528,0,0,1,0,3.829A3.165,3.165,0,0,1,171.7,33.194Zm0-10.83a4.22,4.22,0,0,0,2.824-1.057,3.371,3.371,0,0,0,0-5.105,4.3,4.3,0,0,0-5.647,0,3.371,3.371,0,0,0,0,5.105A4.22,4.22,0,0,0,171.7,22.365Zm0-5.415a2.11,2.11,0,0,1,1.412.529,1.685,1.685,0,0,1,0,2.553,2.15,2.15,0,0,1-2.824,0,1.685,1.685,0,0,1,0-2.553A2.11,2.11,0,0,1,171.7,16.95Zm-6.988,24.367h2V53.248l-1.2-.2a3.863,3.863,0,0,0-2.625.55,3.61,3.61,0,0,0-1.168,3.06v.8l-.889.09c-.11.009-8.1.911-8.1,4.521h-2c0-4.4,6.609-5.821,8.985-6.2a4.9,4.9,0,0,1,1.917-3.727,5.489,5.489,0,0,1,3.075-.956Zm27.952,20.757h-2c0-3.61-7.986-4.512-8.1-4.512l-.889-.09v-.812a3.609,3.609,0,0,0-1.168-3.077,3.876,3.876,0,0,0-2.635-.533l-1.188.18V41.317h2V51.19a5.489,5.489,0,0,1,3.075.956,4.9,4.9,0,0,1,1.917,3.727c2.376.379,8.985,1.8,8.985,6.2Zm-41.928-9.025h-2c0-5.713,5.221-7.22,7.986-7.22v1.8C156.122,47.634,150.741,47.823,150.741,53.049Zm43.925,0h-2c0-5.225-5.381-5.415-5.99-5.415v-1.8C189.445,45.829,194.666,47.336,194.666,53.049Z" transform="translate(-599.573 56.634)" fill="#641eb4"/>
  </g>
</svg>
