<svg xmlns="http://www.w3.org/2000/svg" width="51.814" height="52.126" viewBox="0 0 51.814 52.126">
  <g id="noun-24-hours-4359065" transform="translate(-98.563 -26.88)">
    <path id="Caminho_349" data-name="Caminho 349" d="M115.7,72.174a1.079,1.079,0,0,0-1.385,1.442l.4.808a23.723,23.723,0,1,1,33.466-21.637,1.1,1.1,0,1,0,2.193,0,25.907,25.907,0,1,0-47.083,14.944,25.673,25.673,0,0,0,10.732,8.77l-.981.462a1.066,1.066,0,0,0,.058,1.962h.058a.8.8,0,0,0,.808-.058l3.289-1.5a1.105,1.105,0,0,0,.519-1.442l-.462-.981-1.038-2.308a1.205,1.205,0,0,0-.577-.462Z" fill="#641eb4"/>
    <path id="Caminho_350" data-name="Caminho 350" d="M340.455,69.54a1.1,1.1,0,0,0,1.1-1.1V61.577a1.1,1.1,0,0,0-2.193,0v6.866A1.061,1.061,0,0,0,340.455,69.54Z" transform="translate(-215.986 -30.139)" fill="#641eb4"/>
    <path id="Caminho_351" data-name="Caminho 351" d="M481.015,270.431h6.866a1.1,1.1,0,0,0,1.1-1.1,1.135,1.135,0,0,0-1.1-1.1h-6.866a1.1,1.1,0,0,0-1.1,1.1A1.135,1.135,0,0,0,481.015,270.431Z" transform="translate(-342.063 -216.49)" fill="#641eb4"/>
    <path id="Caminho_352" data-name="Caminho 352" d="M139.617,267.68h-6.924a1.1,1.1,0,0,0,0,2.193h6.866a1.1,1.1,0,0,0,.058-2.193Z" transform="translate(-29.63 -215.989)" fill="#641eb4"/>
    <path id="Caminho_353" data-name="Caminho 353" d="M340.455,267.68a1.1,1.1,0,1,0,1.1,1.1A1.1,1.1,0,0,0,340.455,267.68Z" transform="translate(-215.986 -215.989)" fill="#641eb4"/>
    <path id="Caminho_354" data-name="Caminho 354" d="M257.639,184.4a1.1,1.1,0,0,0-1.558,1.558l6.232,6.232a1.1,1.1,0,0,0,1.558,0,1.153,1.153,0,0,0,0-1.558Z" transform="translate(-141.016 -141.02)" fill="#641eb4"/>
    <path id="Caminho_355" data-name="Caminho 355" d="M377.218,127.842a1.153,1.153,0,0,0-1.558,0L363.6,139.9a1.153,1.153,0,0,0,0,1.558,1.1,1.1,0,0,0,1.558,0L377.218,129.4A1.152,1.152,0,0,0,377.218,127.842Z" transform="translate(-237.458 -90.287)" fill="#641eb4"/>
    <path id="Caminho_356" data-name="Caminho 356" d="M345.521,337.12h-8.366a1.1,1.1,0,0,0-1.1,1.1,1.135,1.135,0,0,0,1.1,1.1h8.366a.578.578,0,0,1,.577.577v4.789a.578.578,0,0,1-.577.577H338.77a2.77,2.77,0,0,0-2.77,2.77v4.789a2.77,2.77,0,0,0,2.77,2.77h8.424a1.1,1.1,0,0,0,1.1-1.1,1.135,1.135,0,0,0-1.1-1.1H338.77a.578.578,0,0,1-.577-.577v-4.9a.555.555,0,0,1,.519-.4h6.809a2.77,2.77,0,0,0,2.769-2.769v-4.789a2.783,2.783,0,0,0-2.769-2.827Z" transform="translate(-212.974 -278.274)" fill="#641eb4"/>
    <path id="Caminho_357" data-name="Caminho 357" d="M493.853,337.12a1.1,1.1,0,0,0-1.1,1.1V345.2h-7.27a.578.578,0,0,1-.577-.577v-6.4a1.1,1.1,0,1,0-2.193,0v6.4a2.77,2.77,0,0,0,2.769,2.77h7.27v6.982a1.1,1.1,0,0,0,1.1,1.1,1.135,1.135,0,0,0,1.1-1.1V338.217a1.061,1.061,0,0,0-1.1-1.1Z" transform="translate(-344.572 -278.274)" fill="#641eb4"/>
  </g>
</svg>
