<svg xmlns="http://www.w3.org/2000/svg" xmlns:xlink="http://www.w3.org/1999/xlink" width="22.629" height="22.805" viewBox="0 0 22.629 22.805">
  <defs>
    <clipPath id="clip-path">
      <rect id="Retângulo_132" data-name="Retângulo 132" width="22.629" height="22.805" fill="#fff"/>
    </clipPath>
  </defs>
  <g id="Grupo_70" data-name="Grupo 70" transform="translate(0 0)">
    <g id="Grupo_69" data-name="Grupo 69" transform="translate(0 0)" clip-path="url(#clip-path)">
      <path id="Caminho_447" data-name="Caminho 447" d="M16.729,13.633c-.279-.153-1.647-.891-1.9-1s-.444-.158-.644.118-.767.894-.939,1.077-.339.2-.618.048A7.765,7.765,0,0,1,10.4,12.388a8.553,8.553,0,0,1-1.5-2.023c-.156-.29,0-.438.146-.574s.3-.321.444-.481a1.948,1.948,0,0,0,.3-.462.52.52,0,0,0-.005-.5c-.066-.145-.58-1.561-.795-2.138s-.455-.491-.62-.5-.354-.036-.543-.044A1.041,1.041,0,0,0,7.053,6,3.176,3.176,0,0,0,5.972,8.327,5.515,5.515,0,0,0,7.019,11.3,11.637,11.637,0,0,0,11.7,15.765c2.841,1.244,2.856.864,3.377.837a2.87,2.87,0,0,0,1.965-1.276,2.369,2.369,0,0,0,.216-1.341c-.067-.121-.253-.2-.531-.351m-5.209,6.723a9.193,9.193,0,0,1-5.087-1.529L2.878,19.965l1.155-3.434a9.244,9.244,0,1,1,7.486,3.826M11.519,0A11.11,11.11,0,0,0,2.006,16.845L0,22.8l6.15-1.969A11.11,11.11,0,1,0,11.519,0" transform="translate(0 0)" fill="#fff" fill-rule="evenodd"/>
    </g>
  </g>
</svg>
