<svg id="Grupo_38" data-name="Grupo 38" xmlns="http://www.w3.org/2000/svg" xmlns:xlink="http://www.w3.org/1999/xlink" width="164" height="41" viewBox="0 0 164 41">
  <defs>
    <clipPath id="clip-path">
      <rect id="Retângulo_117" data-name="Retângulo 117" width="164" height="41" fill="none"/>
    </clipPath>
  </defs>
  <g id="Grupo_37" data-name="Grupo 37" clip-path="url(#clip-path)">
    <path id="Caminho_338" data-name="Caminho 338" d="M101.442,39.549a14.489,14.489,0,0,1,4.791-2.837,16.772,16.772,0,0,1,5.64-.931,10.3,10.3,0,0,1,3.894.7,8.387,8.387,0,0,1,2.941,1.953,8.533,8.533,0,0,1,1.849,2.975,10.688,10.688,0,0,1,.643,3.767V60.065h-3.262a3.335,3.335,0,0,1-1.528-.275,2.105,2.105,0,0,1-.861-1.149l-.505-1.309q-.9.758-1.723,1.332a10.8,10.8,0,0,1-1.712.977,8.418,8.418,0,0,1-1.883.6,11.591,11.591,0,0,1-2.218.2,9.714,9.714,0,0,1-2.964-.425,6.183,6.183,0,0,1-2.262-1.252,5.507,5.507,0,0,1-1.436-2.056,7.429,7.429,0,0,1-.505-2.838,5.927,5.927,0,0,1,.643-2.608,6.442,6.442,0,0,1,2.229-2.412,14.2,14.2,0,0,1,4.273-1.826,28.665,28.665,0,0,1,6.777-.827V45.178a4.365,4.365,0,0,0-.861-3.021,3.172,3.172,0,0,0-2.447-.931,6.48,6.48,0,0,0-2.067.275,9.313,9.313,0,0,0-1.436.62q-.631.345-1.229.621a3.394,3.394,0,0,1-1.425.275,2.052,2.052,0,0,1-1.24-.368,3.189,3.189,0,0,1-.827-.873Zm12.821,10.821a23.727,23.727,0,0,0-3.516.367,8.557,8.557,0,0,0-2.182.689,2.652,2.652,0,0,0-1.114.942,2.226,2.226,0,0,0-.31,1.149,1.993,1.993,0,0,0,.666,1.711,3.248,3.248,0,0,0,1.953.494,5.656,5.656,0,0,0,2.412-.483,7.344,7.344,0,0,0,2.091-1.563Z" transform="translate(-73.539 -26.225)" fill="#fff"/>
    <path id="Caminho_339" data-name="Caminho 339" d="M208.049,37.5l-12.727,30a2.032,2.032,0,0,1-2.251,1.378h-5.331l4.595-9.649L182.825,37.5h6.295a1.968,1.968,0,0,1,1.275.367,2.195,2.195,0,0,1,.654.873l3.906,10.269a20.767,20.767,0,0,1,.9,2.872q.252-.735.505-1.47t.529-1.447l3.539-10.224a1.889,1.889,0,0,1,.734-.884,2.014,2.014,0,0,1,1.149-.356Z" transform="translate(-133.992 -27.486)" fill="#fff"/>
    <path id="Caminho_340" data-name="Caminho 340" d="M310.48,32.618v3.745H291.8V3.441h4.434V32.618Z" transform="translate(-213.861 -2.522)" fill="#fff"/>
    <path id="Caminho_341" data-name="Caminho 341" d="M371.131,41.716a13.3,13.3,0,0,1,4.159-2.78,12.848,12.848,0,0,1,4.939-.919,8.832,8.832,0,0,1,3.469.643,7.122,7.122,0,0,1,2.551,1.792,7.584,7.584,0,0,1,1.561,2.78,11.592,11.592,0,0,1,.529,3.583V61.7h-1.815a1.773,1.773,0,0,1-.919-.2,1.324,1.324,0,0,1-.5-.769l-.459-2.206a22.726,22.726,0,0,1-1.793,1.505,10.226,10.226,0,0,1-1.838,1.1,9.95,9.95,0,0,1-2.055.689,11.285,11.285,0,0,1-2.425.241,8.367,8.367,0,0,1-2.549-.38,5.884,5.884,0,0,1-2.079-1.137,5.346,5.346,0,0,1-1.4-1.919,6.7,6.7,0,0,1-.517-2.745,5.118,5.118,0,0,1,.759-2.654,6.638,6.638,0,0,1,2.457-2.262,16.146,16.146,0,0,1,4.435-1.62,33.827,33.827,0,0,1,6.707-.723V46.816a6.217,6.217,0,0,0-1.171-4.1,4.225,4.225,0,0,0-3.423-1.39,7.369,7.369,0,0,0-2.538.379,9.581,9.581,0,0,0-1.77.85q-.746.471-1.286.851a1.86,1.86,0,0,1-1.069.378,1.174,1.174,0,0,1-.712-.218,2.006,2.006,0,0,1-.505-.54Zm13.21,9.511a34.123,34.123,0,0,0-4.812.449,13.68,13.68,0,0,0-3.24.93,4.476,4.476,0,0,0-1.814,1.356,2.911,2.911,0,0,0-.564,1.746,3.852,3.852,0,0,0,.3,1.586,2.939,2.939,0,0,0,.816,1.091,3.272,3.272,0,0,0,1.217.62,5.584,5.584,0,0,0,1.506.2,8.3,8.3,0,0,0,1.975-.219,7.388,7.388,0,0,0,1.688-.632,9.529,9.529,0,0,0,1.517-.987,13.077,13.077,0,0,0,1.412-1.31Z" transform="translate(-271.159 -27.863)" fill="#fff"/>
    <path id="Caminho_342" data-name="Caminho 342" d="M466.126,13.923a11.963,11.963,0,0,1,3.32-2.711,8.741,8.741,0,0,1,4.261-1.01,8.485,8.485,0,0,1,3.688.781,7.654,7.654,0,0,1,2.791,2.263,10.576,10.576,0,0,1,1.757,3.6,17.194,17.194,0,0,1,.608,4.755,18.04,18.04,0,0,1-.689,5.147,11.675,11.675,0,0,1-1.987,3.963,9.02,9.02,0,0,1-3.159,2.55,9.418,9.418,0,0,1-4.181.907,7.966,7.966,0,0,1-3.871-.861,8.451,8.451,0,0,1-2.746-2.446l-.206,2.113a.984.984,0,0,1-1.057.873h-2.642V0h4.112Zm0,14.313a6.57,6.57,0,0,0,2.47,2.136,6.963,6.963,0,0,0,2.953.621,5.913,5.913,0,0,0,5.031-2.321q1.747-2.321,1.747-6.916,0-4.273-1.551-6.283a5.255,5.255,0,0,0-4.422-2.01,6.465,6.465,0,0,0-3.48.919,10.262,10.262,0,0,0-2.746,2.6Z" transform="translate(-338.61)" fill="#fff"/>
    <path id="Caminho_343" data-name="Caminho 343" d="M567.238,42.4a.9.9,0,0,1-.85.506,1.6,1.6,0,0,1-.782-.253q-.436-.253-1.068-.563a9.973,9.973,0,0,0-1.5-.574,7.2,7.2,0,0,0-2.068-.265,6.105,6.105,0,0,0-1.861.265,4.454,4.454,0,0,0-1.412.723,3.21,3.21,0,0,0-.9,1.069,2.861,2.861,0,0,0-.31,1.321A2.2,2.2,0,0,0,557,46.118a4.488,4.488,0,0,0,1.366,1.034,11.9,11.9,0,0,0,1.93.769q1.08.334,2.217.712t2.217.838a8.078,8.078,0,0,1,1.93,1.149,5.247,5.247,0,0,1,1.368,1.689,5.168,5.168,0,0,1,.517,2.4,7.613,7.613,0,0,1-.574,2.975,6.508,6.508,0,0,1-1.7,2.367,8.227,8.227,0,0,1-2.757,1.574,11.345,11.345,0,0,1-3.768.574,11.742,11.742,0,0,1-4.41-.793,11.177,11.177,0,0,1-3.355-2.033l.965-1.563a1.408,1.408,0,0,1,.437-.459,1.177,1.177,0,0,1,.642-.161,1.536,1.536,0,0,1,.873.321q.459.322,1.114.712a8.442,8.442,0,0,0,1.6.712,7.307,7.307,0,0,0,2.343.322,6.374,6.374,0,0,0,2.09-.311,4.374,4.374,0,0,0,1.493-.838,3.328,3.328,0,0,0,.885-1.218,3.772,3.772,0,0,0,.287-1.47,2.44,2.44,0,0,0-.517-1.6,4.372,4.372,0,0,0-1.367-1.08,11.089,11.089,0,0,0-1.941-.781q-1.092-.333-2.229-.7t-2.227-.838a7.834,7.834,0,0,1-1.942-1.184,5.351,5.351,0,0,1-1.367-1.757,5.684,5.684,0,0,1-.517-2.539,6.185,6.185,0,0,1,.552-2.561,6.264,6.264,0,0,1,1.608-2.16,7.911,7.911,0,0,1,2.6-1.482,10.386,10.386,0,0,1,3.515-.551,11.1,11.1,0,0,1,4.124.723,9.772,9.772,0,0,1,3.159,1.987Z" transform="translate(-404.549 -27.991)" fill="#fff"/>
    <path id="Caminho_344" data-name="Caminho 344" d="M25.051,7.323a9.05,9.05,0,0,0-2.437-3.489,11.744,11.744,0,0,0-4.206-2.322A19.585,19.585,0,0,0,12.3.669H0V34.331H8.232v-5.45H7.714A5.074,5.074,0,0,1,3.406,21.14l4.345-7.048a5,5,0,0,0,.731-2.629V6.119h8.947v5.344a5.19,5.19,0,0,0,.731,2.629l3.832,6.267c.2-.151.386-.305.566-.468a9.266,9.266,0,0,0,2.471-3.6,12.75,12.75,0,0,0,.809-4.621,11.827,11.827,0,0,0-.785-4.343" transform="translate(0 -0.49)" fill="#fff"/>
    <path id="Caminho_345" data-name="Caminho 345" d="M30.512,55.135a2.331,2.331,0,0,0-2.774,0c-1.8,1.278-2.734,0-2.734,0l-4.485,7.358a1.908,1.908,0,0,0-.039,1.967,1.858,1.858,0,0,0,1.692.984H33.345a1.932,1.932,0,0,0,1.692-.984A1.9,1.9,0,0,0,35,62.493Z" transform="translate(-14.82 -40.068)" fill="#fff"/>
    <path id="Caminho_346" data-name="Caminho 346" d="M50.457,39.623a1.383,1.383,0,1,1-1.383-1.383,1.383,1.383,0,0,1,1.383,1.383" transform="translate(-34.953 -28.026)" fill="#fff"/>
    <path id="Caminho_347" data-name="Caminho 347" d="M40.43,28.145A1.044,1.044,0,1,1,39.386,27.1a1.044,1.044,0,0,1,1.044,1.044" transform="translate(-28.101 -19.862)" fill="#fff"/>
  </g>
</svg>
